<svg xmlns="http://www.w3.org/2000/svg" viewBox="0 0 600 180" width="600" height="180">
  <defs>
    <linearGradient id="bg" x1="0%" y1="0%" x2="100%" y2="100%">
      <stop offset="0%" stop-color="#2d1f00"/>
      <stop offset="100%" stop-color="#1a1200"/>
    </linearGradient>
    <linearGradient id="glow" x1="0%" y1="0%" x2="0%" y2="100%">
      <stop offset="0%" stop-color="#F5A623" stop-opacity="0.18"/>
      <stop offset="100%" stop-color="#F5A623" stop-opacity="0"/>
    </linearGradient>
    <radialGradient id="spot" cx="75%" cy="30%" r="45%">
      <stop offset="0%" stop-color="#F5A623" stop-opacity="0.13"/>
      <stop offset="100%" stop-color="#F5A623" stop-opacity="0"/>
    </radialGradient>
  </defs>

  <!-- Background -->
  <rect width="600" height="180" fill="url(#bg)"/>
  <rect width="600" height="180" fill="url(#spot)"/>

  <!-- Grid -->
  <line x1="0" y1="0" x2="0" y2="180" stroke="#F5A623" stroke-opacity="0.04" stroke-width="1"/><line x1="40" y1="0" x2="40" y2="180" stroke="#F5A623" stroke-opacity="0.04" stroke-width="1"/><line x1="80" y1="0" x2="80" y2="180" stroke="#F5A623" stroke-opacity="0.04" stroke-width="1"/><line x1="120" y1="0" x2="120" y2="180" stroke="#F5A623" stroke-opacity="0.04" stroke-width="1"/><line x1="160" y1="0" x2="160" y2="180" stroke="#F5A623" stroke-opacity="0.04" stroke-width="1"/><line x1="200" y1="0" x2="200" y2="180" stroke="#F5A623" stroke-opacity="0.04" stroke-width="1"/><line x1="240" y1="0" x2="240" y2="180" stroke="#F5A623" stroke-opacity="0.04" stroke-width="1"/><line x1="280" y1="0" x2="280" y2="180" stroke="#F5A623" stroke-opacity="0.04" stroke-width="1"/><line x1="320" y1="0" x2="320" y2="180" stroke="#F5A623" stroke-opacity="0.04" stroke-width="1"/><line x1="360" y1="0" x2="360" y2="180" stroke="#F5A623" stroke-opacity="0.04" stroke-width="1"/><line x1="400" y1="0" x2="400" y2="180" stroke="#F5A623" stroke-opacity="0.04" stroke-width="1"/><line x1="440" y1="0" x2="440" y2="180" stroke="#F5A623" stroke-opacity="0.04" stroke-width="1"/><line x1="480" y1="0" x2="480" y2="180" stroke="#F5A623" stroke-opacity="0.04" stroke-width="1"/><line x1="520" y1="0" x2="520" y2="180" stroke="#F5A623" stroke-opacity="0.04" stroke-width="1"/><line x1="560" y1="0" x2="560" y2="180" stroke="#F5A623" stroke-opacity="0.04" stroke-width="1"/><line x1="0" y1="0" x2="600" y2="0" stroke="#F5A623" stroke-opacity="0.04" stroke-width="1"/><line x1="0" y1="40" x2="600" y2="40" stroke="#F5A623" stroke-opacity="0.04" stroke-width="1"/><line x1="0" y1="80" x2="600" y2="80" stroke="#F5A623" stroke-opacity="0.04" stroke-width="1"/><line x1="0" y1="120" x2="600" y2="120" stroke="#F5A623" stroke-opacity="0.04" stroke-width="1"/><line x1="0" y1="160" x2="600" y2="160" stroke="#F5A623" stroke-opacity="0.04" stroke-width="1"/>

  <!-- Top accent bar -->
  <rect x="0" y="0" width="600" height="3" fill="url(#glow2)" rx="0"/>
  <defs>
    <linearGradient id="glow2" x1="0%" y1="0%" x2="100%" y2="0%">
      <stop offset="0%" stop-color="#F5A623" stop-opacity="0"/>
      <stop offset="40%" stop-color="#F5A623" stop-opacity="0.9"/>
      <stop offset="100%" stop-color="#F5A623" stop-opacity="0"/>
    </linearGradient>
  </defs>

  <!-- Status dot -->
  <circle cx="32" cy="32" r="5" fill="#F5A623" opacity="0.9"/>
  <circle cx="32" cy="32" r="9" fill="#F5A623" opacity="0.15"/>

  <!-- Icon -->
  <text x="52" y="42" font-size="26" font-family="Segoe UI Emoji,Apple Color Emoji,sans-serif">💈</text>

  <!-- Title -->
  <text x="32" y="80" fill="white" font-family="Syne,system-ui,sans-serif" font-size="22" font-weight="800" opacity="0.95">Lucks Studio</text>

  <!-- Subtitle -->
  <text x="32" y="104" fill="#F5A623" font-family="DM Sans,system-ui,sans-serif" font-size="13" font-weight="500" opacity="0.85">Sistema de Agendamento</text>

  <!-- Stack pills -->
  
        <rect x="32" y="128" width="57.5" height="22" rx="5" fill="rgba(255,255,255,0.07)" stroke="#F5A623" stroke-opacity="0.35" stroke-width="1"/>
        <text x="60.75" y="143" fill="#F5A623" font-family="monospace" font-size="10.5" text-anchor="middle" font-weight="600">React</text>
        <rect x="97.5" y="128" width="95.0" height="22" rx="5" fill="rgba(255,255,255,0.07)" stroke="#F5A623" stroke-opacity="0.35" stroke-width="1"/>
        <text x="145.0" y="143" fill="#F5A623" font-family="monospace" font-size="10.5" text-anchor="middle" font-weight="600">TypeScript</text>
        <rect x="200.5" y="128" width="80.0" height="22" rx="5" fill="rgba(255,255,255,0.07)" stroke="#F5A623" stroke-opacity="0.35" stroke-width="1"/>
        <text x="240.5" y="143" fill="#F5A623" font-family="monospace" font-size="10.5" text-anchor="middle" font-weight="600">Supabase</text>

  <!-- Corner decoration -->
  <circle cx="540" cy="140" r="60" fill="#F5A623" opacity="0.04"/>
  <circle cx="560" cy="160" r="35" fill="#F5A623" opacity="0.06"/>
</svg>